<svg xmlns="http://www.w3.org/2000/svg" viewBox="0 0 512 512">
  <defs>
    <linearGradient id="background" x1="64" y1="32" x2="448" y2="480" gradientUnits="userSpaceOnUse">
      <stop offset="0" stop-color="#173b62"/>
      <stop offset="1" stop-color="#07131f"/>
    </linearGradient>
    <linearGradient id="field" x1="112" y1="392" x2="400" y2="120" gradientUnits="userSpaceOnUse">
      <stop offset="0" stop-color="#22d3ee"/>
      <stop offset="0.52" stop-color="#5eead4"/>
      <stop offset="1" stop-color="#fbbf24"/>
    </linearGradient>
  </defs>
  <rect x="24" y="24" width="464" height="464" rx="104" fill="url(#background)"/>
  <circle cx="256" cy="256" r="76" fill="#081927" stroke="#d8f6ff" stroke-width="12"/>
  <path d="M74 289c77-97 148-137 226-123 55 10 99 45 138 96" fill="none" stroke="url(#field)" stroke-width="22" stroke-linecap="round"/>
  <path d="M88 354c68-63 135-89 203-78 55 9 99 37 133 77" fill="none" stroke="#38bdf8" stroke-width="14" stroke-linecap="round" opacity=".9"/>
  <path d="M112 205c65-54 126-75 188-65 37 6 71 22 103 48" fill="none" stroke="#facc15" stroke-width="12" stroke-linecap="round" opacity=".9"/>
  <circle cx="256" cy="256" r="25" fill="#e6fbff"/>
</svg>
